<?xml version="1.0" encoding="UTF-8"?>
<svg width="48px" height="48px" viewBox="0 0 48 48" version="1.1" xmlns="http://www.w3.org/2000/svg" xmlns:xlink="http://www.w3.org/1999/xlink">
    <title>Android</title>
    <g id="Android" stroke="none" stroke-width="1" fill="none" fill-rule="evenodd">
        <g id="Group-11" transform="translate(4.000000, 13.000000)" fill="#10293B">
            <path d="M29.18368,16.80648 C28.2568,16.80648 27.50832,16.05364 27.50832,15.13112 C27.50832,14.20424 28.26116,13.4558 29.18368,13.4558 C30.11056,13.4558 30.8590588,14.2086 30.8590588,15.13112 C30.8634,16.05364 30.11056,16.80648 29.18368,16.80648 Z M10.83324,16.80648 C9.90636,16.80648 9.15788,16.05364 9.15788,15.13112 C9.15788,14.20424 9.91072,13.4558 10.83324,13.4558 C11.76012,13.4558 12.5085792,14.2086 12.5085792,15.13112 C12.51296,16.05364 11.76012,16.80648 10.83324,16.80648 Z M29.76244,6.75876 L33.07832,1.01472 C33.26544,0.69272 33.15232,0.28364 32.83464,0.09656 C32.51696,-0.09056 32.10356,0.01824 31.92084,0.34024 L28.5614,6.15824 C25.99836,4.98768 23.11328,4.33496 20.01064,4.33496 C16.908,4.33496 14.02292,4.98768 11.45984,6.15824 L8.10048,0.34024 C7.91336,0.0182 7.50432,-0.0906 7.18228,0.09656 C6.86028,0.28364 6.75148,0.69272 6.9386,1.01472 L10.25448,6.75876 C4.53656,9.85704 0.66368,15.6446 0.024,22.41996 L39.99728,22.41996 C39.3576,15.6446 35.48472,9.85704 29.76244,6.75876 L29.76244,6.75876 Z" id="Fill-10"></path>
        </g>
    </g>
</svg>