<?xml version="1.0" encoding="UTF-8"?>
<svg width="48px" height="48px" viewBox="0 0 48 48" version="1.1" xmlns="http://www.w3.org/2000/svg" xmlns:xlink="http://www.w3.org/1999/xlink">
    <title>Apple</title>
    <g id="Apple" stroke="none" stroke-width="1" fill="none" fill-rule="evenodd">
        <g id="Group-2" transform="translate(7.000000, 4.000000)" fill="#10293B" fill-rule="nonzero">
            <g id="Apple_logo_black" transform="translate(0.333333, 0.000000)">
                <path d="M32.9643717,31.1510883 C32.3598609,32.5476327 31.6443168,33.8331439 30.8152727,35.015026 C29.6852061,36.6262314 28.759934,37.741494 28.0468572,38.3608105 C26.9414657,39.3773762 25.7571168,39.8979957 24.4888764,39.9276051 C23.5784088,39.9276051 22.4804185,39.6685277 21.2023091,39.1429755 C19.9200054,38.6198846 18.7415781,38.3608105 17.6640673,38.3608105 C16.5340013,38.3608105 15.3220175,38.6198846 14.0256495,39.1429755 C12.7273061,39.6685277 11.6813788,39.9424099 10.8816963,39.9695513 C9.66551818,40.0213661 8.45328889,39.4859418 7.24327845,38.3608105 C6.47098519,37.6872112 5.50500101,36.5324705 4.34779293,34.8965883 C3.10620121,33.1496765 2.08544067,31.1239469 1.28575852,28.8144671 C0.429326431,26.3199324 0,23.9043546 0,21.5657604 C0,18.8869119 0.578850471,16.5764449 1.73827842,14.6402812 C2.64948667,13.0850843 3.86171684,11.858296 5.37891616,10.9576971 C6.89611684,10.0570994 8.53545286,9.5981644 10.3008731,9.56880177 C11.2668566,9.56880177 12.5336172,9.86760312 14.1078135,10.4548429 C15.677569,11.0440563 16.6854993,11.3428577 17.1274088,11.3428577 C17.4577926,11.3428577 18.5774956,10.9934742 20.4756613,10.2969301 C22.2706906,9.65096642 23.7856694,9.38350009 25.026768,9.48885767 C28.3898253,9.76027113 30.9164357,11.0860018 32.5967306,13.4744381 C29.5889788,15.296855 28.1011404,17.8493728 28.1307488,21.1238499 C28.1578902,23.6743937 29.0831623,25.7968449 30.901631,27.4820755 C31.7257397,28.2642378 32.6460781,28.8687492 33.6700438,29.2980762 C33.4479815,29.9420654 33.2135791,30.5589139 32.9643717,31.1510883 Z M25.2513017,0.799687194 C25.2513017,2.79879258 24.5209522,4.6653516 23.0651912,6.39301928 C21.3084061,8.4468782 19.1834882,9.63369369 16.8791892,9.44641894 C16.8498276,9.20658797 16.8328024,8.95417416 16.8328024,8.68892972 C16.8328024,6.76979066 17.668262,4.71593275 19.1519061,3.0366249 C19.8926162,2.18636194 20.834667,1.47937979 21.9770704,0.915406722 C23.1170057,0.359848473 24.1952569,0.0526127965 25.2093545,0 C25.2389653,0.26724916 25.2513017,0.53451514 25.2513017,0.799661268 L25.2513017,0.799687194 Z" id="path4"></path>
            </g>
        </g>
    </g>
</svg>