<?xml version="1.0" encoding="UTF-8"?>
<svg width="24px" height="24px" viewBox="0 0 24 24" version="1.1" xmlns="http://www.w3.org/2000/svg" xmlns:xlink="http://www.w3.org/1999/xlink">
    <title>Apps</title>
    <g id="Apps" stroke="none" stroke-width="1" fill="none" fill-rule="evenodd">
        <g id="Group-5" transform="translate(5.000000, 2.000000)" fill="#10293B">
            <path d="M2.0005,18.0005 L12.0005,18.0005 L12.0005,6.0005 L2.0005,6.0005 L2.0005,18.0005 Z M2.0005,4.0005 L12.0005,4.0005 L12.0005,2.0005 L2.0005,2.0005 L2.0005,4.0005 Z M12.5005,0.0005 L1.5005,0.0005 C0.672,0.0005 0.0005,0.672 0.0005,1.5005 L0.0005,18.5005 C0.0005,19.3285 0.672,20.0005 1.5005,20.0005 L12.5005,20.0005 C13.3285,20.0005 14.0005,19.3285 14.0005,18.5005 L14.0005,1.5005 C14.0005,0.672 13.3285,0.0005 12.5005,0.0005 L12.5005,0.0005 Z" id="Fill-2"></path>
            <path d="M7.0003,15.00035 C6.4478,15.00035 6.0003,15.44835 6.0003,16.00035 C6.0003,16.55235 6.4478,17.00035 7.0003,17.00035 C7.5523,17.00035 8.0003,16.55235 8.0003,16.00035 C8.0003,15.44835 7.5523,15.00035 7.0003,15.00035" id="Fill-4"></path>
        </g>
    </g>
</svg>