<?xml version="1.0" encoding="UTF-8"?>
<svg width="24px" height="24px" viewBox="0 0 24 24" version="1.1" xmlns="http://www.w3.org/2000/svg" xmlns:xlink="http://www.w3.org/1999/xlink">
    <title>Blog</title>
    <g id="Blog" stroke="none" stroke-width="1" fill="none" fill-rule="evenodd">
        <g id="Group-8" transform="translate(2.000000, 3.000000)" fill="#10293B">
            <polygon id="Fill-2" points="4.0005 7.0005 12.5005 7.0005 12.5005 5.0005 4.0005 5.0005"></polygon>
            <g id="Group-7">
                <path d="M18.0003,15.25035 C18.0003,15.66535 17.6653,16.00035 17.2503,16.00035 C16.8353,16.00035 16.5003,15.66535 16.5003,15.25035 L16.5003,8.50035 L18.0003,8.50035 L18.0003,15.25035 Z M2.7503,16.00035 C2.4803,16.00035 2.3003,15.86035 2.2198,15.78035 C2.1353,15.70035 2.0003,15.52035 2.0003,15.25035 L2.0003,2.00035 L14.5003,2.00035 L14.5003,15.25035 C14.5003,15.51035 14.5353,15.76035 14.6053,16.00035 L2.7503,16.00035 Z M16.5003,6.50035 L16.5003,0.00035 L0.0003,0.00035 L0.0003,15.25035 C0.0003,16.01035 0.3103,16.70035 0.8048,17.19535 C1.3003,17.69035 1.9903,18.00035 2.7503,18.00035 L17.0003,18.00035 L16.9953,17.98535 C17.0803,17.99535 17.1653,18.00035 17.2503,18.00035 C18.7703,18.00035 20.0003,16.77035 20.0003,15.25035 L20.0003,6.50035 L16.5003,6.50035 Z" id="Fill-3"></path>
                <polygon id="Fill-5" points="4.0005 11.0005 12.5005 11.0005 12.5005 9.0005 4.0005 9.0005"></polygon>
            </g>
        </g>
    </g>
</svg>