<?xml version="1.0" encoding="utf-8"?>
<!-- Generator: Adobe Illustrator 15.0.0, SVG Export Plug-In . SVG Version: 6.00 Build 0)  -->
<!DOCTYPE svg PUBLIC "-//W3C//DTD SVG 1.1//EN" "http://www.w3.org/Graphics/SVG/1.1/DTD/svg11.dtd">
<svg version="1.1" id="Layer_1" xmlns="http://www.w3.org/2000/svg" xmlns:xlink="http://www.w3.org/1999/xlink" x="0px" y="0px"
	 width="24px" height="24px" viewBox="0 0 24 24" enable-background="new 0 0 24 24" xml:space="preserve">
<title>Call Center</title>
<g id="Call-Center">
	<g id="Group-8" transform="translate(2.000000, 4.000000)">
		<path id="Fill-2" fill="#2A2AE6" d="M17.229,12.623h-2.704l-0.813-1.082l-0.54-0.721h-0.902H7.763H6.861L6.32,11.541l-0.812,1.082
			H2.803v-1.91c2.23-1.111,4.703-1.696,7.213-1.696c2.511,0,4.983,0.585,7.213,1.696V12.623z M10.017,7.213
			C6.733,7.213,3.65,8.097,1,9.639l0.902,4.788H6.41l1.353-1.804h4.508l1.353,1.804h4.509l0.901-4.788
			C16.383,8.097,13.299,7.213,10.017,7.213L10.017,7.213z"/>
		<polygon id="Fill-4" fill="#2A2AE6" points="9.115,3.606 10.918,3.606 10.918,0 9.115,0 		"/>
		<polygon id="Fill-6" fill="#2A2AE6" points="6.214,5.228 4.542,2.032 2.944,2.869 4.618,6.064 		"/>
		<polygon id="Fill-7" fill="#2A2AE6" points="17.034,2.869 15.438,2.032 13.764,5.228 15.361,6.064 		"/>
	</g>
</g>
</svg>
