<?xml version="1.0" encoding="utf-8"?>
<!-- Generator: Adobe Illustrator 15.0.0, SVG Export Plug-In . SVG Version: 6.00 Build 0)  -->
<!DOCTYPE svg PUBLIC "-//W3C//DTD SVG 1.1//EN" "http://www.w3.org/Graphics/SVG/1.1/DTD/svg11.dtd">
<svg version="1.1" id="Layer_1" xmlns="http://www.w3.org/2000/svg" xmlns:xlink="http://www.w3.org/1999/xlink" x="0px" y="0px"
	 width="24px" height="24px" viewBox="0 0 24 24" enable-background="new 0 0 24 24" xml:space="preserve">
<title>Chat</title>
<g id="Chat">
	<g id="Group-7" transform="translate(2.000000, 2.000000)">
		<g id="Group-10" transform="translate(0.000000, 0.499650)">
			<path id="Fill-2" fill="#27B769" d="M5.95,6.406c-0.746,0-1.35,0.604-1.35,1.35c0,0.745,0.604,1.35,1.35,1.35
				S7.3,8.501,7.3,7.756C7.3,7.01,6.696,6.406,5.95,6.406"/>
			<path id="Fill-4" fill="#27B769" d="M10,6.406c-0.745,0-1.35,0.604-1.35,1.35c0,0.745,0.605,1.35,1.35,1.35s1.35-0.605,1.35-1.35
				C11.35,7.01,10.745,6.406,10,6.406"/>
			<path id="Fill-6" fill="#27B769" d="M14.05,6.406c-0.745,0-1.35,0.604-1.35,1.35c0,0.745,0.604,1.35,1.35,1.35
				S15.4,8.501,15.4,7.756C15.4,7.01,14.795,6.406,14.05,6.406"/>
			<path id="Fill-8" fill="#27B769" d="M13.249,1.006H6.751C3.575,1.006,1,3.581,1,6.757v1.999c0,3.176,2.575,5.751,5.751,5.751H7.3
				v3.169c0,0.25,0.205,0.421,0.422,0.421c0.089,0,0.181-0.03,0.262-0.096l4.303-3.494h0.963c3.176,0,5.751-2.575,5.751-5.751V6.757
				C19,3.581,16.425,1.006,13.249,1.006 M13.249,2.806c2.179,0,3.951,1.772,3.951,3.951v1.999c0,2.182-1.769,3.951-3.951,3.951
				h-1.23c-0.24,0-0.474,0.082-0.659,0.233L9.1,14.775v-0.269v-0.753c0-0.579-0.469-1.047-1.047-1.047H7.3H6.751
				c-2.182,0-3.951-1.77-3.951-3.951V6.757c0-2.182,1.77-3.951,3.951-3.951H13.249"/>
		</g>
	</g>
</g>
</svg>
