<?xml version="1.0" encoding="utf-8"?>
<!-- Generator: Adobe Illustrator 15.0.0, SVG Export Plug-In . SVG Version: 6.00 Build 0)  -->
<!DOCTYPE svg PUBLIC "-//W3C//DTD SVG 1.1//EN" "http://www.w3.org/Graphics/SVG/1.1/DTD/svg11.dtd">
<svg version="1.1" id="Layer_1" xmlns="http://www.w3.org/2000/svg" xmlns:xlink="http://www.w3.org/1999/xlink" x="0px" y="0px"
	 width="24px" height="24px" viewBox="0 0 24 24" enable-background="new 0 0 24 24" xml:space="preserve">
<title>Competitor Analysis</title>
<g id="Competitor-Analysis">
	<g id="Group-15-Copy-3" transform="translate(2.000000, 1.000000)">
		<g id="Group-10" transform="translate(0.000000, 0.500450)">
			<path id="Fill-2" fill="#10293B" d="M14.702,2.496c-2.037,0-3.688,1.651-3.688,3.688s1.651,3.688,3.688,3.688
				c2.035,0,3.688-1.651,3.688-3.688S16.737,2.496,14.702,2.496 M14.702,4.135c1.13,0,2.048,0.919,2.048,2.048
				c0,1.13-0.918,2.049-2.048,2.049s-2.049-0.919-2.049-2.049C12.653,5.054,13.572,4.135,14.702,4.135"/>
			<path id="Fill-4" fill="#10293B" d="M5.688,11.509C3.651,11.509,2,13.162,2,15.198c0,2.037,1.651,3.688,3.688,3.688
				c2.036,0,3.688-1.65,3.688-3.688C9.375,13.162,7.724,11.509,5.688,11.509 M5.688,13.149c1.13,0,2.049,0.919,2.049,2.049
				s-0.919,2.048-2.049,2.048s-2.049-0.918-2.049-2.048S4.558,13.149,5.688,13.149"/>
			<path id="Fill-6" fill="#10293B" d="M5.688,2.496C3.651,2.496,2,4.147,2,6.184s1.651,3.688,3.688,3.688
				c2.036,0,3.688-1.651,3.688-3.688S7.724,2.496,5.688,2.496 M5.688,4.135c1.13,0,2.049,0.919,2.049,2.048
				c0,1.13-0.919,2.049-2.049,2.049S3.639,7.314,3.639,6.184C3.639,5.054,4.558,4.135,5.688,4.135"/>
			<path id="Fill-8" fill="#10293B" d="M14.702,11.509c-2.037,0-3.688,1.652-3.688,3.688c0,2.037,1.651,3.688,3.688,3.688
				c2.035,0,3.688-1.65,3.688-3.688C18.39,13.162,16.737,11.509,14.702,11.509 M14.702,13.149c1.13,0,2.048,0.919,2.048,2.049
				s-0.918,2.048-2.048,2.048s-2.049-0.918-2.049-2.048S13.572,13.149,14.702,13.149"/>
		</g>
	</g>
</g>
</svg>
