<?xml version="1.0" encoding="utf-8"?>
<!-- Generator: Adobe Illustrator 15.0.0, SVG Export Plug-In . SVG Version: 6.00 Build 0)  -->
<!DOCTYPE svg PUBLIC "-//W3C//DTD SVG 1.1//EN" "http://www.w3.org/Graphics/SVG/1.1/DTD/svg11.dtd">
<svg version="1.1" id="Layer_1" xmlns="http://www.w3.org/2000/svg" xmlns:xlink="http://www.w3.org/1999/xlink" x="0px" y="0px"
	 width="594.5px" height="118.383px" viewBox="5.5 90.808 594.5 118.383" enable-background="new 5.5 90.808 594.5 118.383"
	 xml:space="preserve">
<polygon id="Fill-1" fill="#FFFFFF" points="202.76,185.698 191.292,185.698 191.292,125.028 166.875,125.028 166.875,114.299 
	227.177,114.299 227.177,125.028 202.76,125.028 "/>
<path id="Fill-2" fill="#FFFFFF" d="M231.986,171.643c0,1.85,0.74,3.33,1.85,4.438c1.11,1.109,2.959,1.48,5.18,1.48
	c4.069,0,7.398-1.851,9.619-5.18c1.479-2.221,2.589-5.18,2.589-8.14v-1.851l-12.208,2.59
	C234.206,166.092,231.986,168.313,231.986,171.643 M256.772,137.976c3.33,3.329,5.179,7.769,5.179,14.058v33.664h-9.619l-0.37-6.658
	c-2.959,5.18-8.139,7.771-15.168,7.771c-4.809,0-8.509-1.48-11.098-4.069c-2.959-2.591-4.07-6.29-4.07-10.729
	c0-8.139,5.18-13.318,15.168-15.168l14.798-2.589v-2.22c0-6.289-2.959-9.249-8.509-9.249c-2.589,0-4.809,0.739-6.659,2.219
	c-1.85,1.48-2.59,3.33-2.59,5.919h-10.358c0.37-5.179,2.22-9.619,5.549-12.948c3.7-3.329,8.139-5.179,14.058-5.179
	C248.634,133.167,253.073,134.647,256.772,137.976"/>
<polygon id="Fill-4" fill="#FFFFFF" points="275.64,185.698 286.368,185.698 286.368,111.34 275.64,111.34 "/>
<polygon id="Fill-6" fill="#FFFFFF" points="342.229,134.277 325.953,155.734 344.819,185.698 332.242,185.698 318.554,164.242 
	311.524,172.382 311.524,185.698 300.796,185.698 300.796,111.34 311.524,111.34 311.524,156.843 328.912,134.277 "/>
<path id="Fill-7" fill="#FFFFFF" d="M406.23,119.109c5.55,4.07,9.248,9.989,11.1,17.018h-12.578
	c-2.96-8.509-9.619-12.948-19.608-12.948c-7.027,0-12.577,2.589-17.017,7.398c-4.438,4.809-6.66,11.468-6.66,18.868
	c0,7.769,2.221,14.058,6.66,18.868c4.438,5.18,9.988,7.398,17.017,7.398c5.181,0,9.619-1.109,12.949-3.7
	c3.329-2.219,5.919-5.549,7.028-9.618h12.209c-2.22,7.77-5.919,13.318-11.1,17.758c-5.55,4.069-12.578,6.289-21.088,6.289
	c-10.357,0-18.865-3.33-25.525-10.358c-6.658-7.026-9.988-15.907-9.988-26.635c0-10.729,3.33-19.608,9.988-26.637
	c6.66-7.028,15.168-10.358,25.525-10.358C393.652,112.819,400.682,115.04,406.23,119.109"/>
<path id="Fill-8" fill="#FFFFFF" d="M452.104,133.167c5.55,0,9.618,1.85,12.578,5.179c2.96,3.329,4.439,8.14,4.439,14.059v33.294
	h-10.729v-31.444c0-3.33-0.739-6.29-2.219-8.138c-1.479-1.85-3.7-2.96-6.659-2.96c-2.961,0-5.55,1.11-7.77,3.7
	c-1.852,2.59-2.96,6.29-2.96,10.729V185.7h-10.729v-74.36h10.729v28.856C441.376,135.386,445.815,133.167,452.104,133.167"/>
<path id="Fill-9" fill="#FFFFFF" d="M483.181,185.698h10.729v-51.792h-10.729V185.698L483.181,185.698z M493.539,113.93
	c1.479,1.479,1.85,2.958,1.85,4.809c0,1.85-0.739,3.33-1.85,4.81c-1.48,1.479-2.959,1.85-4.811,1.85c-1.85,0-3.698-0.74-4.809-1.85
	c-1.479-1.11-1.851-2.96-1.851-4.81c0-1.85,0.738-3.699,1.851-4.809c1.479-1.48,2.959-1.85,4.809-1.85
	C490.58,111.71,492.059,112.45,493.539,113.93L493.539,113.93z"/>
<path id="Fill-10" fill="#FFFFFF" d="M539.042,146.116c-2.22-2.22-5.55-3.33-9.248-3.33c-4.07,0-7.029,1.11-9.619,3.7
	c-2.589,2.219-4.068,5.549-4.438,9.249h26.637C542.742,151.294,541.632,148.335,539.042,146.116L539.042,146.116z M516.105,163.872
	c0.369,4.069,1.85,7.399,4.438,9.987c2.59,2.591,5.919,3.701,9.988,3.701c6.289,0,10.729-2.59,12.209-7.399h10.728
	c-1.479,5.55-4.438,9.618-8.509,12.579c-4.069,2.958-8.878,4.438-14.797,4.438c-7.399,0-13.688-2.589-18.128-7.398
	c-4.439-4.809-7.028-11.469-7.028-19.606c0-7.769,2.219-14.428,7.028-19.606c4.81-5.18,10.729-7.769,18.128-7.769
	c7.028,0,12.947,2.219,17.018,7.028c4.438,4.44,6.659,11.099,6.659,19.607v4.069h-37.734V163.872L516.105,163.872z"/>
<path id="Fill-11" fill="#FFFFFF" d="M591.205,111.34v9.619c-1.85-0.74-3.699-1.11-5.919-1.11c-4.811,0-7.029,2.589-7.029,7.769
	v6.289h12.208v9.989h-12.208v41.803h-11.099v-41.803h-8.879v-9.989h8.879v-6.658c0-5.549,1.479-9.619,4.438-12.579
	c2.959-2.958,7.029-4.438,12.578-4.438C587.136,110.23,589.725,110.6,591.205,111.34"/>
<path fill="#FFFFFF" d="M92.773,90.808H43.2c-18.867,0-34.405,15.538-34.405,34.405v49.573c0,18.868,15.538,34.405,34.405,34.405
	h49.573c18.867,0,34.405-15.537,34.405-34.405v-49.573C127.178,106.346,111.64,90.808,92.773,90.808L92.773,90.808z"/>
<path fill="#10293B" d="M109.605,131.502c0,6.29-5.179,11.838-11.838,11.838H82.6v30.706c0,6.29-5.179,11.84-11.838,11.84h-5.919
	c-6.289,0-11.838-5.181-11.838-11.84V142.97H37.836c-6.289,0-11.838-5.179-11.838-11.838v-5.18c0-6.289,5.179-11.838,11.838-11.838
	h60.301c6.29,0,11.838,5.18,11.838,11.838v5.549L109.605,131.502L109.605,131.502z"/>
</svg>
