<?xml version="1.0" encoding="UTF-8"?>
<svg width="24px" height="24px" viewBox="0 0 24 24" version="1.1" xmlns="http://www.w3.org/2000/svg" xmlns:xlink="http://www.w3.org/1999/xlink">
    <title>Globe</title>
    <g id="Globe" stroke="none" stroke-width="1" fill="none" fill-rule="evenodd">
        <path d="M15.0165,19.405 C15.821,17.7855 16.3635,15.5365 16.477,13 L19.93,13 C19.5655,15.907 17.6395,18.332 15.0165,19.405 L15.0165,19.405 Z M4.069,13 L7.5225,13 C7.6355,15.5365 8.178,17.7855 8.983,19.405 C6.36,18.332 4.434,15.907 4.069,13 L4.069,13 Z M8.983,4.5955 C8.178,6.215 7.6355,8.464 7.5225,11 L4.069,11 C4.434,8.093 6.36,5.6675 8.983,4.5955 L8.983,4.5955 Z M9.527,11 C9.6265,9.0065 10.019,7.133 10.6415,5.7495 C11.242,4.415 11.847,4 12,4 C12.152,4 12.757,4.415 13.358,5.7495 C13.9805,7.133 14.373,9.0065 14.4725,11 L9.527,11 Z M12,20 C11.847,20 11.242,19.585 10.6415,18.25 C10.019,16.8675 9.6265,14.994 9.527,13 L14.4725,13 C14.373,14.994 13.9805,16.8675 13.358,18.25 C12.757,19.585 12.152,20 12,20 L12,20 Z M19.9305,11 L16.477,11 C16.3635,8.464 15.821,6.2145 15.0165,4.595 C17.6395,5.6675 19.5655,8.093 19.9305,11 L19.9305,11 Z M12,2 C6.4765,2 2,6.4775 2,12 C2,17.5225 6.4765,22 12,22 C17.5225,22 22,17.5225 22,12 C22,6.4775 17.5225,2 12,2 L12,2 Z" id="Fill-2" fill="#0F93F3"></path>
    </g>
</svg>