<?xml version="1.0" encoding="UTF-8"?>
<svg width="48px" height="48px" viewBox="0 0 48 48" version="1.1" xmlns="http://www.w3.org/2000/svg" xmlns:xlink="http://www.w3.org/1999/xlink">
    <title>Linux</title>
    <g id="Linux" stroke="none" stroke-width="1" fill="none" fill-rule="evenodd">
        <g id="linux-tux-black-vector-logo" transform="translate(7.000000, 4.000000)" fill="#10293B">
            <path d="M8.17435115,20.178626 C7.87022901,20.1419847 8.26290076,19.9135878 8.42931298,19.6259542 C8.61221374,19.3099237 8.57679389,18.9151145 8.76885496,18.9734351 C8.96122137,19.0314504 8.85435115,19.2525191 8.72244275,19.6149618 C8.61038168,19.9236641 8.28641221,20.1923664 8.17435115,20.178626 Z M15.9429008,9.21923664 C16.5865649,8.92122137 16.8116031,9.38320611 16.589313,9.45740458 C16.3627481,9.53343511 16.360916,9.11083969 15.9429008,9.21923664 Z M18.5825954,7.61343511 C18.7621374,7.66687023 18.9346565,7.97770992 18.9722137,8.31328244 C18.9758779,8.34442748 19.2070229,8.26503817 19.2091603,8.19175573 C19.2235115,7.65129771 18.7624427,7.39755725 18.6415267,7.40854962 C18.3639695,7.43358779 18.4421374,7.57160305 18.5825954,7.61343511 Z M13.4335878,7.84732824 C13.5172519,7.82900763 13.6360305,7.97129771 13.5993893,8.17099237 C13.5477863,8.44824427 13.5700763,8.62198473 13.7621374,8.62259542 C13.7938931,8.62259542 13.8280916,8.61679389 13.8403053,8.54473282 C13.9322137,7.99236641 13.6454962,7.58717557 13.5279389,7.55694656 C13.2577099,7.48793893 13.290687,7.8778626 13.4335878,7.84732824 Z M14.6467176,9.15358779 C13.939542,9.10076336 13.8909924,9.6119084 14.1251908,9.60366412 C14.3639695,9.5951145 14.2174046,9.19877863 14.6467176,9.15358779 Z M21.7407634,11.8980153 C21.900458,11.730687 21.9825954,12.1874809 22.4119084,12.4583206 C22.7523664,12.6732824 23.0833588,12.5141985 23.1694656,12.949313 C23.231145,13.261374 23.0363359,13.5996947 22.7746565,13.5557252 C22.319084,13.4787786 21.2683969,12.3938931 21.7407634,11.8980153 Z M19.1120611,3.00427481 C19.0308397,3.24793893 18.6952672,3.45099237 18.9080916,3.62167939 C19.1215267,3.79236641 19.2433588,3.38320611 19.6720611,3.22992366 C19.7829008,3.19022901 20.2980153,3.24641221 20.3929771,3.00122137 C20.4345038,2.89465649 20.1273282,2.77282443 19.9444275,2.5978626 C19.7615267,2.42320611 19.5822901,2.26778626 19.4103817,2.27877863 C18.9661069,2.30717557 19.1844275,2.78839695 19.1120611,3.00427481 Z M11.2622901,33.920916 C11.8103817,34.7838168 13.7419847,38.4167939 10.3560305,38.8879389 C9.22351145,39.0461069 7.40030534,38.2296183 5.63358779,37.7972519 C4.04641221,37.4091603 2.43450382,37.1789313 1.53251908,36.9254962 C0.989312977,36.7734351 0.762442748,36.5783206 0.715114504,36.3505344 C0.589923664,35.7474809 1.37465649,34.9019847 1.41435115,34.1880916 C1.4540458,33.4735878 1.15389313,33.1025954 0.908091603,32.52 C0.661679389,31.9361832 0.597862595,31.4989313 0.79480916,31.2485496 C0.948091603,31.0540458 1.25954198,30.9725191 1.76610687,31.0219847 C2.40854962,31.0851908 3.18412214,30.9538931 3.60091603,30.6992366 C4.30290076,30.271145 4.6329771,29.3938931 4.31725191,28.3364885 C4.31725191,29.3709924 3.97801527,29.7630534 3.12732824,30.2357252 C2.32580153,30.6818321 1.08854962,30.3212214 0.52,30.8149618 C-0.164274809,31.4082443 0.764274809,32.9410687 0.688244275,34.0662595 C0.629923664,34.9309924 -0.272366412,35.9050382 0.130076336,36.7722137 C0.534656489,37.6445802 2.42229008,37.739542 4.39022901,38.1508397 C7.18778626,38.7364885 8.8189313,39.7545038 10.1114504,39.8027481 C11.9969466,39.8726718 12.2858015,37.9374046 15.2464122,37.911145 C16.1096183,37.8659542 16.9545038,37.839084 17.7981679,37.8283969 C18.7541985,37.8164885 19.7090076,37.8241221 20.6894656,37.8479389 C22.659542,37.8949618 21.9822901,38.9233588 23.260458,39.580458 C24.3389313,40.1343511 26.2778626,39.9157252 26.7422901,39.4729771 C27.369771,38.8741985 29.0552672,37.4341985 30.3462595,36.7835115 C31.9566412,35.9719084 35.7361832,34.5755725 32.9917557,32.8735878 C32.3526718,32.4763359 30.8403053,32.0570992 30.7132824,29.1545038 C30.1407634,29.6632061 30.2070229,32.3679389 31.8048855,32.9047328 C33.589313,33.5041221 34.7041221,34.5077863 31.3865649,35.6418321 C29.1899237,36.3932824 28.8167939,36.6247328 27.0775573,38.0720611 C25.3181679,39.5367939 22.7071756,38.9554198 23.1630534,35.8714504 C23.4006107,34.2650382 23.5370992,32.9374046 23.1374046,31.5407634 C22.9422901,30.8583206 22.8451908,29.9835115 22.9783206,29.369771 C23.2378626,28.1764885 23.8839695,27.8170992 24.5169466,28.9630534 C24.9145038,29.6818321 25.0534351,30.5227481 26.4763359,30.591145 C28.7117557,30.6980153 29.1545038,28.431145 29.8690076,28.3279389 C30.3453435,28.2589313 30.8216794,26.9105344 30.4589313,24.728855 C30.070229,22.3929771 28.6958779,18.7053435 26.9337405,16.8351145 C25.4687023,15.2806107 24.5456489,13.9178626 23.9651908,11.9728244 C23.4772519,10.338626 23.2048855,8.7480916 23.3053435,7.22748092 C23.4354198,5.25709924 22.3425954,2.51541985 20.6033588,1.22534351 C19.5145038,0.417709924 17.8067176,-0.0146564885 16.2610687,0.00213740458 C15.3945038,0.0116030534 14.578626,0.138320611 13.9517557,0.478473282 C11.3716031,1.87908397 11.0116031,3.87938931 11.0500763,6.16274809 C11.0861069,8.30778626 11.159084,10.7554198 11.4030534,13.0839695 C11.1145038,14.1529771 9.61221374,16.1798473 8.65068702,17.4131298 C7.35755725,18.6903817 6.70473282,21.159084 5.86778626,23.3160305 C5.42137405,24.4659542 4.66961832,24.9853435 4.60641221,26.4638168 C4.58870229,26.8769466 4.60305344,27.9468702 4.99816794,27.640916 C6.51053435,26.4708397 8.40335878,29.420458 11.2622901,33.920916 Z M11.808855,33.980458 C13.2366412,33.8332824 13.4250382,32.3218321 12.7526718,31.6622901 C12.1987786,31.119084 9.14198473,28.849771 8.34442748,27.9575573 C7.9740458,27.5438168 7.47236641,27.340458 7.25984733,26.8754198 C6.77099237,25.8048855 6.42839695,24.2769466 7.04854962,23.179542 C7.16091603,22.9816794 7.2329771,23.0705344 7.14717557,23.4836641 C6.66015267,25.8244275 8.18442748,27.7364885 8.52,26.7560305 C8.75175573,26.0784733 8.53679389,24.8665649 8.66076336,23.9041221 C8.88,22.200916 10.4305344,18.9300763 11.1114504,18.7432061 C10.0610687,16.7978626 12.3432061,15.2748092 12.3154198,13.5673282 C12.2970992,12.4567939 13.290687,14.9325191 14.2891603,15.4574046 C15.4045802,16.0436641 16.630229,14.3526718 18.3703817,13.4949618 C18.8625954,13.2522137 19.4937405,12.9731298 19.4512977,12.7661069 C19.2470229,11.7679389 17.1658015,13.9978626 15.3074809,14.0729771 C14.4592366,14.1071756 14.1444275,13.9062595 13.8167939,13.5899237 C12.8259542,12.6323664 13.9175573,13.4314504 15.390229,13.1651908 C16.0445802,13.0464122 16.2647328,12.9377099 16.9593893,12.6570992 C17.6540458,12.3761832 18.4479389,11.9606107 19.2335878,11.7471756 C19.7807634,11.5984733 19.7352672,11.1874809 19.5224427,11.0638168 C19.4,10.9926718 19.2183206,10.9993893 19.0741985,11.2482443 C18.7370992,11.8314504 17.151145,12.1685496 16.6564885,12.3196947 C16.0210687,12.5141985 15.3181679,12.6958779 14.3844275,12.6577099 C12.9654962,12.6003053 13.2961832,11.9499237 12.2815267,11.3679389 C11.9841221,11.1975573 12.0644275,10.749313 12.4598473,10.3541985 C12.6668702,10.1465649 13.2345038,10.0299237 13.5160305,9.55816794 C13.5557252,9.49221374 13.9184733,9.11267176 14.2030534,8.91633588 C14.301374,8.84793893 14.3099237,7.11603053 13.4210687,7.08030534 C12.6659542,7.04977099 12.4512977,7.6351145 12.4830534,8.21832061 C12.5145038,8.80122137 12.8235115,9.2821374 13.0290076,9.28 C13.4253435,9.27572519 13.0543511,9.71328244 12.8372519,9.78381679 C12.5074809,9.89129771 12.0555725,8.48580153 12.1074809,7.81099237 C12.1618321,7.10839695 12.5279389,5.86351145 13.4174046,5.88763359 C14.218626,5.90931298 14.799084,6.91389313 14.7700763,8.64610687 C14.7648855,8.93984733 16.0687023,8.5059542 16.5041221,8.96580153 C16.8152672,9.29465649 15.4378626,5.89648855 18.5047328,5.66259542 C19.3129771,5.81709924 20.0891603,6.08610687 20.4116031,7.94381679 C20.2925191,8.13709924 20.6125191,9.4329771 20.1138931,9.58687023 C19.5050382,9.77465649 19.1294656,9.55969466 19.4812214,8.97984733 C19.7221374,8.39755725 19.4870229,6.91664122 18.2552672,7.00580153 C17.0232061,7.09435115 17.1868702,9.28061069 17.5242748,9.32396947 C17.8622901,9.3670229 18.7126718,9.97038168 19.3062595,10.0864122 C21.2552672,10.4656489 19.8232061,11.5825954 20.0763359,12.9349618 C20.3621374,14.4622901 21.3679389,14.0589313 22.2723664,18.1032061 C22.4610687,18.3496183 23.2100763,18.5829008 23.9398473,21.689771 C24.5960305,24.4854962 23.6668702,26.5187786 25.2451908,26.3517557 C25.6006107,26.3141985 26.12,26.2143511 26.3462595,25.4225954 C26.9367939,23.3517557 26.0500763,20.8851908 25.1551145,19.220458 C24.6335878,18.249771 24.1429008,17.5887023 23.8833588,17.3615267 C24.9096183,17.9679389 26.2210687,19.9044275 26.5233588,21.3425954 C26.920916,23.2308397 27.2045802,24.0305344 26.6030534,26.0277863 C26.950229,26.2015267 27.8140458,26.5682443 27.8140458,26.9801527 C26.9145038,26.2406107 24.1603053,26.1096183 24.0894656,27.8778626 C23.619542,27.8873282 23.2644275,27.9254962 22.9621374,28.2845802 C21.8549618,29.5984733 22.8827481,32.2366412 22.770687,33.6519084 C22.6717557,34.8970992 22.3267176,36.1309924 22.1319084,37.3816794 C21.4726718,37.3566412 21.5370992,36.8741985 21.7483969,36.1972519 C21.9349618,35.6003053 22.2360305,34.8519084 22.2555725,34.1343511 C22.2735878,33.4848855 22.2024427,33.0787786 22.0387786,32.9780153 C21.8751145,32.8772519 21.6183206,33.0818321 21.2641221,33.6525191 C20.5080916,34.870229 18.8699237,35.4058015 17.340458,35.5972519 C15.810687,35.789313 14.3887023,35.6372519 13.6357252,34.7938931 C13.3780153,34.5053435 12.951145,34.8726718 12.900458,34.9490076 C12.8323664,35.0516031 13.1496183,35.250687 13.3887023,35.689771 C13.7380153,36.3300763 14.0699237,37.3022901 13.2427481,37.7459542 C13.2525191,35.4903817 12.538626,35.3587786 11.808855,33.980458 L11.808855,33.980458 Z" id="Fill-73"></path>
        </g>
    </g>
</svg>