<?xml version="1.0" encoding="UTF-8"?>
<svg width="24px" height="24px" viewBox="0 0 24 24" version="1.1" xmlns="http://www.w3.org/2000/svg" xmlns:xlink="http://www.w3.org/1999/xlink">
    <title>Logic</title>
    <g id="Logic" stroke="none" stroke-width="1" fill="none" fill-rule="evenodd">
        <g id="Group-6" transform="translate(2.000000, 2.000000)" fill="#0F93F3">
            <path d="M0,11 L9,11 L9,0 L0,0 L0,11 Z M2,9 L7,9 L7,2 L2,2 L2,9 Z" id="Fill-2"></path>
            <path d="M11,20 L20,20 L20,9 L11,9 L11,20 Z M13,18 L18,18 L18,11 L13,11 L13,18 Z" id="Fill-3"></path>
            <path d="M11,7 L20,7 L20,0 L11,0 L11,7 Z M13,5 L18,5 L18,2 L13,2 L13,5 Z" id="Fill-4"></path>
            <path d="M0,20 L9,20 L9,13 L0,13 L0,20 Z M2,18 L7,18 L7,15 L2,15 L2,18 Z" id="Fill-5"></path>
        </g>
    </g>
</svg>