<?xml version="1.0" encoding="utf-8"?>
<!-- Generator: Adobe Illustrator 15.0.0, SVG Export Plug-In . SVG Version: 6.00 Build 0)  -->
<!DOCTYPE svg PUBLIC "-//W3C//DTD SVG 1.1//EN" "http://www.w3.org/Graphics/SVG/1.1/DTD/svg11.dtd">
<svg version="1.1" id="Layer_1" xmlns="http://www.w3.org/2000/svg" xmlns:xlink="http://www.w3.org/1999/xlink" x="0px" y="0px"
	 width="612px" height="126.348px" viewBox="0 332.826 612 126.348" enable-background="new 0 332.826 612 126.348"
	 xml:space="preserve">
<g>
	<polygon id="path-1_8_" fill="#FFFFFF" points="0,459.174 610.815,459.174 610.815,332.826 0,332.826 	"/>
</g>
<g>
	<polygon id="path-1_7_" fill="#FFFFFF" points="0,459.174 610.815,459.174 610.815,332.826 0,332.826 	"/>
</g>
<g>
	<polygon id="path-1_6_" fill="#FFFFFF" points="0,459.174 610.815,459.174 610.815,332.826 0,332.826 	"/>
</g>
<g>
	<polygon id="path-1_5_" fill="#FFFFFF" points="0,459.174 610.815,459.174 610.815,332.826 0,332.826 	"/>
</g>
<g>
	<polygon id="path-1_4_" fill="#FFFFFF" points="0,459.174 610.815,459.174 610.815,332.826 0,332.826 	"/>
</g>
<g>
	<polygon id="path-1_3_" fill="#FFFFFF" points="0,459.174 610.815,459.174 610.815,332.826 0,332.826 	"/>
</g>
<g>
	<polygon id="path-1_2_" fill="#FFFFFF" points="0,459.174 610.815,459.174 610.815,332.826 0,332.826 	"/>
</g>
<g>
	<polygon id="path-1_1_" fill="#FFFFFF" points="0,459.174 610.815,459.174 610.815,332.826 0,332.826 	"/>
</g>
<g id="Logo">
	<g id="Group-14">
		<polygon id="Fill-1" fill="#0C243C" points="196.235,435.484 183.995,435.484 183.995,370.73 157.936,370.73 157.936,359.28 
			222.294,359.28 222.294,370.73 196.235,370.73 		"/>
		<g id="Group-13">
			<path id="Fill-2" fill="#0C243C" d="M227.427,420.48c0,1.974,0.79,3.553,1.974,4.737s3.159,1.58,5.528,1.58
				c4.343,0,7.896-1.975,10.266-5.528c1.58-2.369,2.764-5.527,2.764-8.687v-1.974l-13.029,2.764
				C229.796,414.558,227.427,416.927,227.427,420.48 M253.881,384.55c3.554,3.553,5.528,8.292,5.528,15.004v35.931h-10.266
				l-0.395-7.107c-3.159,5.527-8.687,8.291-16.188,8.291c-5.133,0-9.082-1.579-11.845-4.343c-3.159-2.764-4.343-6.712-4.343-11.45
				c0-8.687,5.528-14.215,16.188-16.188l15.793-2.764v-2.369c0-6.712-3.159-9.871-9.081-9.871c-2.764,0-5.133,0.79-7.107,2.369
				c-1.974,1.579-2.764,3.553-2.764,6.317h-11.056c0.395-5.528,2.369-10.266,5.923-13.819c3.948-3.554,8.687-5.528,15.004-5.528
				C245.195,379.417,249.933,380.996,253.881,384.55"/>
			<polygon id="Fill-4" fill="#0C243C" points="274.018,435.484 285.468,435.484 285.468,356.121 274.018,356.121 			"/>
			<polygon id="Fill-6" fill="#0C243C" points="345.089,380.601 327.716,403.502 347.853,435.484 334.429,435.484 319.819,412.583 
				312.317,421.27 312.317,435.484 300.867,435.484 300.867,356.121 312.317,356.121 312.317,404.687 330.875,380.601 			"/>
			<path id="Fill-7" fill="#0C243C" d="M413.396,364.413c5.922,4.343,9.871,10.661,11.845,18.163h-13.425
				c-3.158-9.082-10.266-13.819-20.926-13.819c-7.502,0-13.425,2.764-18.163,7.896s-7.106,12.24-7.106,20.137
				c0,8.291,2.368,15.004,7.106,20.137c4.738,5.527,10.661,7.896,18.163,7.896c5.527,0,10.266-1.185,13.819-3.948
				c3.554-2.369,6.317-5.923,7.502-10.266h13.029c-2.369,8.291-6.317,14.214-11.845,18.952c-5.923,4.343-13.425,6.712-22.506,6.712
				c-11.056,0-20.137-3.554-27.244-11.056s-10.661-16.978-10.661-28.428c0-11.451,3.554-20.927,10.661-28.429
				s16.188-11.056,27.244-11.056C399.972,357.701,407.474,360.07,413.396,364.413"/>
			<path id="Fill-8" fill="#0C243C" d="M462.356,379.417c5.922,0,10.266,1.974,13.424,5.527c3.159,3.554,4.738,8.687,4.738,15.004
				v35.536h-11.45v-33.562c0-3.554-0.79-6.712-2.369-8.687c-1.579-1.975-3.948-3.159-7.107-3.159c-3.158,0-5.922,1.184-8.291,3.948
				c-1.975,2.764-3.159,6.712-3.159,11.451v30.008h-11.45v-79.363h11.45v30.798C450.906,381.786,455.644,379.417,462.356,379.417"/>
			<path id="Fill-9" fill="#0C243C" d="M495.522,435.484h11.45v-55.278h-11.45V435.484L495.522,435.484z M506.578,358.885
				c1.579,1.579,1.975,3.159,1.975,5.133s-0.79,3.554-1.975,5.133c-1.579,1.58-3.159,1.974-5.133,1.974
				c-1.975,0-3.948-0.79-5.133-1.974c-1.58-1.185-1.975-3.159-1.975-5.133s0.79-3.948,1.975-5.133
				c1.579-1.58,3.158-1.974,5.133-1.974C503.419,356.516,504.999,357.306,506.578,358.885L506.578,358.885z"/>
			<path id="Fill-10" fill="#0C243C" d="M555.144,393.236c-2.369-2.369-5.923-3.554-9.871-3.554c-4.344,0-7.502,1.185-10.266,3.948
				c-2.765,2.369-4.344,5.923-4.738,9.871h28.429C559.092,398.764,557.907,395.605,555.144,393.236L555.144,393.236z
				 M530.663,412.188c0.395,4.343,1.975,7.896,4.738,10.66c2.764,2.765,6.317,3.949,10.66,3.949c6.713,0,11.45-2.765,13.03-7.897
				h11.45c-1.579,5.923-4.738,10.266-9.081,13.425c-4.344,3.159-9.477,4.738-15.794,4.738c-7.896,0-14.609-2.764-19.347-7.897
				c-4.738-5.133-7.502-12.239-7.502-20.926c0-8.292,2.369-15.399,7.502-20.927s11.45-8.292,19.347-8.292
				c7.502,0,13.819,2.369,18.163,7.502c4.737,4.738,7.106,11.845,7.106,20.926v4.344h-40.273V412.188z"/>
			<path id="Fill-11" fill="#0C243C" d="M610.815,356.121v10.266c-1.974-0.79-3.948-1.185-6.317-1.185
				c-5.133,0-7.502,2.764-7.502,8.292v6.712h13.029v10.661h-13.029v44.617h-11.845v-44.617h-9.477v-10.661h9.477V373.1
				c0-5.923,1.579-10.266,4.737-13.425c3.159-3.159,7.502-4.738,13.425-4.738C606.473,354.937,609.236,355.332,610.815,356.121"/>
			<path id="Fill-12" fill="#0F93F3" d="M107.791,374.284c0,6.712-5.528,12.635-12.635,12.635H78.968v32.771
				c0,6.712-5.528,12.635-12.635,12.635h-6.317c-6.712,0-12.635-5.527-12.635-12.635v-33.167H31.192
				c-6.712,0-12.635-5.528-12.635-12.635v-5.528c0-6.712,5.527-12.635,12.635-12.635h64.358c6.712,0,12.635,5.528,12.635,12.635
				v5.922H107.791z M89.628,332.826H36.72c-20.137,0-36.72,16.583-36.72,36.72v52.908c0,20.137,16.583,36.72,36.72,36.72h52.908
				c20.137,0,36.72-16.583,36.72-36.72v-52.908C126.349,349.409,109.765,332.826,89.628,332.826L89.628,332.826z"/>
		</g>
	</g>
</g>
</svg>
