<?xml version="1.0" encoding="utf-8"?>
<!-- Generator: Adobe Illustrator 15.0.0, SVG Export Plug-In . SVG Version: 6.00 Build 0)  -->
<!DOCTYPE svg PUBLIC "-//W3C//DTD SVG 1.1//EN" "http://www.w3.org/Graphics/SVG/1.1/DTD/svg11.dtd">
<svg version="1.1" id="Layer_1" xmlns="http://www.w3.org/2000/svg" xmlns:xlink="http://www.w3.org/1999/xlink" x="0px" y="0px"
	 width="24px" height="24px" viewBox="0 0 24 24" enable-background="new 0 0 24 24" xml:space="preserve">
<title>Non-Profit</title>
<g id="Non-Profit">
	<g id="Group-10" transform="translate(2.000000, 3.000000)">
		<g id="Group">
			<path id="Path" fill="none" stroke="#27B769" stroke-width="2" d="M5.442,3.134c0.875,0,1.748,0.355,2.418,1.056l0,0l2.019,2.113
				l2.011-2.104c0.67-0.701,1.542-1.056,2.418-1.056c0.875,0,1.747,0.355,2.417,1.056c0.686,0.717,1.025,1.653,1.025,2.587
				c0,0.935-0.34,1.871-1.025,2.588l0,0l-6.854,7.172L3.025,9.366C2.34,8.648,2,7.711,2,6.776c0-0.935,0.34-1.87,1.024-2.586
				C3.694,3.489,4.567,3.134,5.442,3.134z"/>
		</g>
	</g>
</g>
</svg>
