<?xml version="1.0" encoding="UTF-8"?>
<svg width="24px" height="24px" viewBox="0 0 24 24" version="1.1" xmlns="http://www.w3.org/2000/svg" xmlns:xlink="http://www.w3.org/1999/xlink">
    <title>Productivity</title>
    <g id="Productivity" stroke="none" stroke-width="1" fill="none" fill-rule="evenodd">
        <g id="Group-4" transform="translate(2.000000, 2.000000)" fill="#27B769">
            <path d="M18,14 L14,14 L14,4 L14,2 L18,2 L18,14 Z M12,14 L8,14 L8,8 L8,6 L12,6 L12,14 Z M2,14 L6,14 L6,10 L2,10 L2,14 Z M12,0 L12,4 L6,4 L6,8 L0,8 L0,16 L6,16 L8,16 L12,16 L14,16 L20,16 L20,0 L12,0 Z" id="Fill-2"></path>
            <polygon id="Fill-3" points="0 20 20 20 20 18 0 18"></polygon>
        </g>
    </g>
</svg>