<?xml version="1.0" encoding="utf-8"?>
<!-- Generator: Adobe Illustrator 15.0.0, SVG Export Plug-In . SVG Version: 6.00 Build 0)  -->
<!DOCTYPE svg PUBLIC "-//W3C//DTD SVG 1.1//EN" "http://www.w3.org/Graphics/SVG/1.1/DTD/svg11.dtd">
<svg version="1.1" id="Layer_1" xmlns="http://www.w3.org/2000/svg" xmlns:xlink="http://www.w3.org/1999/xlink" x="0px" y="0px"
	 width="24px" height="24px" viewBox="0 0 24 24" enable-background="new 0 0 24 24" xml:space="preserve">
<title>Sales</title>
<g id="Sales">
	<g id="Group-8" transform="translate(2.000000, 2.000000)">
		<path id="Fill-2" fill="#D7A409" d="M16.426,1.006H2.743c-0.962,0-1.742,0.779-1.742,1.741v13.683c0,0.962,0.78,1.741,1.742,1.741
			h13.683c0.963,0,1.742-0.779,1.742-1.741V2.748C18.168,1.786,17.389,1.006,16.426,1.006 M16.426,2.723
			c0.014,0,0.025,0.01,0.025,0.024v13.683c0,0.013-0.012,0.024-0.025,0.024H2.743c-0.014,0-0.025-0.012-0.025-0.024V2.748
			c0-0.014,0.011-0.024,0.025-0.024H16.426"/>
		<polygon id="Fill-4" fill="#D7A409" points="5.292,14.733 7.009,14.733 7.009,9.584 5.292,9.584 		"/>
		<polygon id="Fill-6" fill="#D7A409" points="8.726,14.733 10.441,14.733 10.441,4.435 8.726,4.435 		"/>
		<polygon id="Fill-7" fill="#D7A409" points="12.158,14.733 13.875,14.733 13.875,6.151 12.158,6.151 		"/>
	</g>
</g>
</svg>
