<?xml version="1.0" encoding="UTF-8"?>
<svg width="24px" height="24px" viewBox="0 0 24 24" version="1.1" xmlns="http://www.w3.org/2000/svg" xmlns:xlink="http://www.w3.org/1999/xlink">
    <title>Search</title>
    <g id="Search" stroke="none" stroke-width="1" fill="none" fill-rule="evenodd">
        <g id="Group-4" transform="translate(2.000000, 2.000000)" fill="#95A1AC">
            <path d="M7.00045,12.00035 C4.24345,12.00035 2.00045,9.75735 2.00045,7.00035 C2.00045,4.24335 4.24345,2.00035 7.00045,2.00035 C9.75745,2.00035 12.00045,4.24335 12.00045,7.00035 C12.00045,9.75735 9.75745,12.00035 7.00045,12.00035 L7.00045,12.00035 Z M19.70745,18.29335 L12.60095,11.18685 C13.47595,10.01835 14.00045,8.57235 14.00045,7.00035 C14.00045,3.13435 10.86645,0.00035 7.00045,0.00035 C3.13445,0.00035 0.00045,3.13435 0.00045,7.00035 C0.00045,10.86585 3.13445,14.00035 7.00045,14.00035 C8.57295,14.00035 10.01845,13.47585 11.18695,12.60085 L18.29345,19.70735 L19.70745,18.29335 Z" id="Fill-2"></path>
        </g>
    </g>
</svg>