<?xml version="1.0" encoding="utf-8"?>
<!-- Generator: Adobe Illustrator 15.0.0, SVG Export Plug-In . SVG Version: 6.00 Build 0)  -->
<!DOCTYPE svg PUBLIC "-//W3C//DTD SVG 1.1//EN" "http://www.w3.org/Graphics/SVG/1.1/DTD/svg11.dtd">
<svg version="1.1" id="Layer_1" xmlns="http://www.w3.org/2000/svg" xmlns:xlink="http://www.w3.org/1999/xlink" x="0px" y="0px"
	 width="24px" height="24px" viewBox="0 0 24 24" enable-background="new 0 0 24 24" xml:space="preserve">
<title>Startup</title>
<g id="Startup">
	<g id="Group-4" transform="translate(2.000000, 2.000000)">
		<path id="Fill-2" fill="#FD4B46" d="M17.088,10.971c-0.84-0.184-1.64-0.277-2.418-0.277c-2.363,0-4.053,0.854-5.536,1.604
			c-1.296,0.652-2.414,1.215-3.928,1.215c-0.737,0-1.533-0.13-2.417-0.393V5.331c0.84,0.183,1.64,0.276,2.417,0.276
			c2.364,0,4.053-0.853,5.537-1.604c1.296-0.653,2.413-1.216,3.928-1.216c0.738,0,1.532,0.129,2.418,0.393V10.971z M14.67,1
			c-3.883,0-5.581,2.82-9.464,2.82c-0.72,0-1.52-0.099-2.417-0.326V1H1v1.904v11.481v4.49h1.788v-3.901
			C3.686,15.202,4.486,15.3,5.206,15.3c3.883,0,5.582-2.819,9.464-2.819c1.167,0,2.529,0.254,4.205,0.917V1.917
			C17.199,1.255,15.837,1,14.67,1L14.67,1z"/>
	</g>
</g>
</svg>
