<?xml version="1.0" encoding="UTF-8"?>
<svg width="48px" height="48px" viewBox="0 0 48 48" version="1.1" xmlns="http://www.w3.org/2000/svg" xmlns:xlink="http://www.w3.org/1999/xlink">
    <title>About-Calls</title>
    <g id="About-Calls" stroke="none" stroke-width="1" fill="none" fill-rule="evenodd">
        <g id="Group-6" transform="translate(4.000000, 6.000000)" fill="#95A1AC">
            <path d="M36,32 L4,32 L4,25.66 L6.82,22.82 L7.02,22.62 L7.2,22.4 L12,16 L15,12 L25,12 L28,16 L32.8,22.4 L32.98,22.62 L33.18,22.82 L36,25.66 L36,32 Z M5.32,12 L4.48,7.54 C8.04,5.82 11.878,4.7 15.82,4.24 C17.2,4.08 18.6,4 20,4 C21.4,4 22.8,4.08 24.18,4.24 C28.122,4.7 31.96,5.82 35.52,7.54 L34.68,12 L30,12 L28.2,9.6 L27,8 L13,8 L11.8,9.6 L10,12 L5.32,12 Z M33,16 L38,16 L40,5.38 C34.122,1.96 27.282,0 20,0 C12.718,0 5.878,1.96 0,5.38 L2,16 L7,16 L4,20 L0,24 L0,36 L40,36 L40,24 L36,20 L33,16 Z" id="Fill-2"></path>
            <path d="M20,26 C17.794,26 16,24.206 16,22 C16,19.794 17.794,18 20,18 C22.206,18 24,19.794 24,22 C24,24.206 22.206,26 20,26 M20,14 C15.582,14 12,17.582 12,22 C12,26.418 15.582,30 20,30 C24.418,30 28,26.418 28,22 C28,17.582 24.418,14 20,14" id="Fill-4"></path>
        </g>
    </g>
</svg>