<?xml version="1.0" encoding="UTF-8"?>
<svg width="24px" height="24px" viewBox="0 0 24 24" version="1.1" xmlns="http://www.w3.org/2000/svg" xmlns:xlink="http://www.w3.org/1999/xlink">
    <title>Support</title>
    <g id="Support" stroke="none" stroke-width="1" fill="none" fill-rule="evenodd">
        <g id="Group-4" transform="translate(2.000000, 2.000000)" fill="#0F93F3">
            <path d="M16.20485,15.0407 L14.06685,12.9022 C14.65235,12.0832 15.00035,11.0832 15.00035,10.0002 C15.00035,8.9812 14.69385,8.0342 14.17035,7.2437 L16.31185,5.1022 C17.36535,6.4577 17.99985,8.1547 17.99985,10.0002 C17.99985,11.9097 17.32535,13.6637 16.20485,15.0407 M5.24535,16.4187 L7.39935,14.2647 C8.15785,14.7282 9.04635,15.0002 9.99985,15.0002 C10.95385,15.0002 11.84235,14.7282 12.60085,14.2647 L14.75485,16.4187 C13.42385,17.4072 11.78135,18.0002 9.99985,18.0002 C8.21835,18.0002 6.57635,17.4072 5.24535,16.4187 M1.99985,10.0002 C1.99985,8.1542 2.63435,6.4572 3.68835,5.1022 L5.82985,7.2432 C5.30585,8.0337 4.99985,8.9807 4.99985,10.0002 C4.99985,11.0837 5.34785,12.0837 5.93335,12.9027 L3.79535,15.0407 C2.67435,13.6637 1.99985,11.9097 1.99985,10.0002 M6.99985,10.0002 C6.99985,8.3452 8.34535,6.9997 9.99985,6.9997 C11.65385,6.9997 13.00035,8.3452 13.00035,10.0002 C13.00035,11.6547 11.65385,13.0002 9.99985,13.0002 C8.34535,13.0002 6.99985,11.6547 6.99985,10.0002 M14.89785,3.6882 L12.75635,5.8297 C11.96585,5.3062 11.01935,4.9997 9.99985,4.9997 C8.98085,4.9997 8.03435,5.3062 7.24385,5.8297 L5.10235,3.6882 C6.45735,2.6347 8.15385,2.0002 9.99985,2.0002 C11.84535,2.0002 13.54285,2.6347 14.89785,3.6882 M9.99985,0.0002 C4.47685,0.0002 -0.00015,4.4772 -0.00015,10.0002 C-0.00015,15.5227 4.47685,20.0002 9.99985,20.0002 C15.52285,20.0002 19.99985,15.5227 19.99985,10.0002 C19.99985,4.4772 15.52285,0.0002 9.99985,0.0002" id="Fill-2"></path>
        </g>
    </g>
</svg>