<?xml version="1.0" encoding="utf-8"?>
<!-- Generator: Adobe Illustrator 15.0.0, SVG Export Plug-In . SVG Version: 6.00 Build 0)  -->
<!DOCTYPE svg PUBLIC "-//W3C//DTD SVG 1.1//EN" "http://www.w3.org/Graphics/SVG/1.1/DTD/svg11.dtd">
<svg version="1.1" id="Layer_1" xmlns="http://www.w3.org/2000/svg" xmlns:xlink="http://www.w3.org/1999/xlink" x="0px" y="0px"
	 width="24px" height="24px" viewBox="0 0 24 24" enable-background="new 0 0 24 24" xml:space="preserve">
<title>Support</title>
<g id="Support">
	<g id="Group-4" transform="translate(2.000000, 2.000000)">
		<path id="Fill-2" fill="#2A2AE6" d="M15.585,14.537l-1.925-1.925c0.527-0.737,0.84-1.638,0.84-2.612
			c0-0.917-0.276-1.769-0.747-2.48l1.929-1.928C16.629,6.812,17.2,8.34,17.2,10C17.2,11.719,16.593,13.298,15.585,14.537
			 M5.721,15.777l1.938-1.938C8.342,14.256,9.141,14.5,10,14.5c0.857,0,1.657-0.244,2.342-0.661l1.938,1.938
			C13.081,16.666,11.604,17.2,10,17.2C8.396,17.2,6.918,16.666,5.721,15.777 M2.8,10c0-1.662,0.571-3.188,1.52-4.408l1.928,1.927
			C5.775,8.231,5.5,9.082,5.5,10c0,0.976,0.313,1.876,0.841,2.612l-1.924,1.925C3.406,13.298,2.8,11.719,2.8,10 M7.3,10
			c0-1.49,1.211-2.7,2.7-2.7c1.488,0,2.7,1.212,2.7,2.7s-1.212,2.7-2.7,2.7C8.511,12.7,7.3,11.488,7.3,10 M14.408,4.319L12.48,6.247
			C11.77,5.775,10.918,5.5,10,5.5c-0.917,0-1.769,0.275-2.48,0.747L5.593,4.319C6.812,3.371,8.338,2.8,10,2.8
			C11.661,2.8,13.188,3.371,14.408,4.319 M10,1c-4.971,0-9,4.029-9,9c0,4.97,4.029,9,9,9s9-4.03,9-9C19,5.029,14.971,1,10,1"/>
	</g>
</g>
</svg>
