<?xml version="1.0" encoding="UTF-8"?>
<svg width="48px" height="48px" viewBox="0 0 48 48" version="1.1" xmlns="http://www.w3.org/2000/svg" xmlns:xlink="http://www.w3.org/1999/xlink">
    <title>About-Minutes</title>
    <g id="About-Minutes" stroke="none" stroke-width="1" fill="none" fill-rule="evenodd">
        <g id="Group-6" transform="translate(4.000000, 3.000000)" fill="#95A1AC">
            <path d="M19.9976,36.9918 C11.1776,36.9918 3.9996,29.8138 3.9996,20.9918 C3.9996,12.1698 11.1776,4.9938 19.9976,4.9938 C28.8196,4.9938 35.9976,12.1698 35.9976,20.9918 C35.9976,29.8138 28.8196,36.9918 19.9976,36.9918 M19.9976,0.9938 C8.9536,0.9938 -0.000400000001,9.9478 -0.000400000001,20.9918 C-0.000400000001,32.0358 8.9536,40.9918 19.9976,40.9918 C31.0416,40.9918 39.9976,32.0358 39.9976,20.9918 C39.9976,9.9478 31.0416,0.9938 19.9976,0.9938" id="Fill-2"></path>
            <polygon id="Fill-4" points="21.9976 8.9938 17.9976 8.9938 17.9976 20.9938 27.5376 28.2758 29.9636 25.0958 21.9976 19.0138"></polygon>
        </g>
    </g>
</svg>