<?xml version="1.0" encoding="utf-8"?>
<!-- Generator: Adobe Illustrator 15.0.0, SVG Export Plug-In . SVG Version: 6.00 Build 0)  -->
<!DOCTYPE svg PUBLIC "-//W3C//DTD SVG 1.1//EN" "http://www.w3.org/Graphics/SVG/1.1/DTD/svg11.dtd">
<svg version="1.1" id="Layer_1" xmlns="http://www.w3.org/2000/svg" xmlns:xlink="http://www.w3.org/1999/xlink" x="0px" y="0px"
	 width="24px" height="24px" viewBox="0 0 24 24" enable-background="new 0 0 24 24" xml:space="preserve">
<title>Support</title>
<g id="Support">
	<g id="Group-4" transform="translate(2.000000, 2.000000)">
		<path id="Fill-2" d="M16.205,15.041l-2.139-2.139C14.652,12.083,15,11.083,15,10c0-1.019-0.307-1.966-0.83-2.756l2.143-2.142
			C17.365,6.458,18,8.155,18,10C18,11.91,17.325,13.664,16.205,15.041 M5.245,16.419l2.154-2.154C8.158,14.729,9.046,15,10,15
			c0.953,0,1.842-0.271,2.602-0.735l2.153,2.154C13.424,17.407,11.781,18,10,18C8.218,18,6.576,17.407,5.245,16.419 M2,10
			c0-1.846,0.634-3.543,1.688-4.898L5.83,7.243C5.306,8.034,5,8.98,5,10c0,1.084,0.348,2.084,0.934,2.902l-2.138,2.139
			C2.674,13.664,2,11.91,2,10 M7,10c0-1.655,1.345-3,3-3c1.654,0,3,1.346,3,3c0,1.654-1.346,3-3,3C8.345,13,7,11.654,7,10
			 M14.898,3.688L12.756,5.83C11.966,5.306,11.02,5,10,5C8.981,5,8.034,5.306,7.244,5.83L5.103,3.688C6.458,2.635,8.154,2,10,2
			C11.846,2,13.543,2.635,14.898,3.688 M10,0C4.477,0,0,4.477,0,10c0,5.522,4.477,10,10,10c5.523,0,10-4.478,10-10
			C20,4.477,15.523,0,10,0"/>
	</g>
</g>
</svg>
