<?xml version="1.0" encoding="UTF-8"?>
<svg width="48px" height="48px" viewBox="0 0 48 48" version="1.1" xmlns="http://www.w3.org/2000/svg" xmlns:xlink="http://www.w3.org/1999/xlink">
    <title>About-Coffee</title>
    <g id="About-Coffee" stroke="none" stroke-width="1" fill="none" fill-rule="evenodd">
        <g id="Group-9" transform="translate(4.000000, 3.000000)" fill="#95A1AC">
            <g id="Group-8" transform="translate(0.000000, 0.000900)">
                <path d="M36,26.9991 C34.9,26.9991 34,26.0991 34,24.9991 C34,23.8991 34.9,22.9991 36,22.9991 C37.1,22.9991 38,23.8991 38,24.9991 C38,26.0991 37.1,26.9991 36,26.9991 L36,26.9991 Z M30,26.45785 C30,30.32785 28.5375,34.01785 25.8616667,36.9991 L8.13833333,36.9991 C5.4625,34.01785 4,30.32785 4,26.45785 L4,18.9991 L30,18.9991 L30,26.45785 Z M35.7,19.3324333 C34.965,19.3324333 34.2615,19.4624333 33.6,19.7116 L33.6,16.0607667 C33.6,15.4757667 33.0855,14.9991 32.445,14.9991 L1.155,14.9991 C0.5145,14.9991 -2.16840434e-19,15.4757667 -2.16840434e-19,16.0607667 L-2.16840434e-19,26.5149333 C-2.16840434e-19,31.9424333 2.3415,37.1532667 6.49845,40.9991 L27.10155,40.9991 C29.1795,39.0707667 30.807,36.8174333 31.91055,34.3474333 C32.298,33.4699333 32.634,32.5707667 32.886,31.6499333 C33.726,32.0832667 34.6815,32.3324333 35.7,32.3324333 C39.17655,32.3324333 42,29.4182667 42,25.8324333 C42,22.2466 39.17655,19.3324333 35.7,19.3324333 L35.7,19.3324333 Z" id="Fill-2"></path>
                <path d="M12.0006,12.9927 C10.8966,12.9927 10.0006,12.0967 10.0006,10.9927 C10.0006,9.2737 9.7576,8.9177 9.3896,8.3787 C8.6296,7.2677 8.0006,6.0957 8.0006,2.9927 C8.0006,1.8887 8.8966,0.9927 10.0006,0.9927 C11.1046,0.9927 12.0006,1.8887 12.0006,2.9927 C12.0006,5.1117 12.3056,5.5567 12.6906,6.1217 C13.4076,7.1697 14.0006,8.2597 14.0006,10.9927 C14.0006,12.0967 13.1046,12.9927 12.0006,12.9927" id="Fill-4"></path>
                <path d="M20.0006,12.9927 C18.8966,12.9927 18.0006,12.0967 18.0006,10.9927 C18.0006,9.2737 17.7576,8.9177 17.3896,8.3787 C16.6296,7.2677 16.0006,6.0957 16.0006,2.9927 C16.0006,1.8887 16.8966,0.9927 18.0006,0.9927 C19.1046,0.9927 20.0006,1.8887 20.0006,2.9927 C20.0006,5.1117 20.3056,5.5567 20.6906,6.1217 C21.4076,7.1697 22.0006,8.2597 22.0006,10.9927 C22.0006,12.0967 21.1046,12.9927 20.0006,12.9927" id="Fill-6"></path>
            </g>
        </g>
    </g>
</svg>