<?xml version="1.0" encoding="UTF-8"?>
<svg width="48px" height="48px" viewBox="0 0 48 48" version="1.1" xmlns="http://www.w3.org/2000/svg" xmlns:xlink="http://www.w3.org/1999/xlink">
    <title>About-Countries</title>
    <g id="About-Countries" stroke="none" stroke-width="1" fill="none" fill-rule="evenodd">
        <g id="Group-4" transform="translate(4.000000, 4.000000)" fill="#95A1AC">
            <path d="M26.0334,34.8096 C27.6424,31.5706 28.7274,27.0726 28.9544,21.9996 L35.8604,21.9996 C35.1314,27.8136 31.2794,32.6636 26.0334,34.8096 L26.0334,34.8096 Z M4.1384,21.9996 L11.0454,21.9996 C11.2714,27.0726 12.3564,31.5706 13.9664,34.8096 C8.7204,32.6636 4.8684,27.8136 4.1384,21.9996 L4.1384,21.9996 Z M13.9664,5.1906 C12.3564,8.4296 11.2714,12.9276 11.0454,17.9996 L4.1384,17.9996 C4.8684,12.1856 8.7204,7.3346 13.9664,5.1906 L13.9664,5.1906 Z M15.0544,17.9996 C15.2534,14.0126 16.0384,10.2656 17.2834,7.4986 C18.4844,4.8296 19.6944,3.9996 20.0004,3.9996 C20.3044,3.9996 21.5144,4.8296 22.7164,7.4986 C23.9614,10.2656 24.7464,14.0126 24.9454,17.9996 L15.0544,17.9996 Z M20.0004,35.9996 C19.6944,35.9996 18.4844,35.1696 17.2834,32.4996 C16.0384,29.7346 15.2534,25.9876 15.0544,21.9996 L24.9454,21.9996 C24.7464,25.9876 23.9614,29.7346 22.7164,32.4996 C21.5144,35.1696 20.3044,35.9996 20.0004,35.9996 L20.0004,35.9996 Z M35.8614,17.9996 L28.9544,17.9996 C28.7274,12.9276 27.6424,8.4286 26.0334,5.1896 C31.2794,7.3346 35.1314,12.1856 35.8614,17.9996 L35.8614,17.9996 Z M20.0004,-0.000400000001 C8.9534,-0.000400000001 0.000400000001,8.9546 0.000400000001,19.9996 C0.000400000001,31.0446 8.9534,39.9996 20.0004,39.9996 C31.0454,39.9996 40.0004,31.0446 40.0004,19.9996 C40.0004,8.9546 31.0454,-0.000400000001 20.0004,-0.000400000001 L20.0004,-0.000400000001 Z" id="Fill-2"></path>
        </g>
    </g>
</svg>