<?xml version="1.0" encoding="UTF-8"?>
<svg width="64px" height="64px" viewBox="0 0 64 64" version="1.1" xmlns="http://www.w3.org/2000/svg" xmlns:xlink="http://www.w3.org/1999/xlink">
    <title>T-logo</title>
    <g id="T-logo" stroke="none" stroke-width="1" fill="none" fill-rule="evenodd">
        <path d="M51.77325,22.368 C51.77325,25.42175 49.30225,27.891 46.2555,27.891 L38.9545,27.891 L38.9545,42.5175 C38.9545,45.56425 36.4835,48.03525 33.435,48.03525 L30.56675,48.03525 C27.51825,48.03525 25.049,45.56425 25.049,42.5175 L25.049,27.891 L17.748,27.891 C14.69775,27.891 12.2285,25.42175 12.2285,22.368 L12.2285,19.77625 C12.2285,16.72775 14.69775,14.25675 17.748,14.25675 L46.2555,14.25675 C49.30225,14.25675 51.77325,16.72775 51.77325,19.77625 L51.77325,22.368 Z M43.6865,4 L20.3135,4 C11.30625,4 4,11.30625 4,20.31525 L4,43.6865 C4,52.6955 11.30625,60 20.3135,60 L43.6865,60 C52.6955,60 60,52.6955 60,43.6865 L60,20.31525 C60,11.30625 52.6955,4 43.6865,4 L43.6865,4 Z" id="Fill-12" fill="#0F93F3"></path>
    </g>
</svg>