<?xml version="1.0" encoding="utf-8"?>
<!-- Generator: Adobe Illustrator 15.0.0, SVG Export Plug-In . SVG Version: 6.00 Build 0)  -->
<!DOCTYPE svg PUBLIC "-//W3C//DTD SVG 1.1//EN" "http://www.w3.org/Graphics/SVG/1.1/DTD/svg11.dtd">
<svg version="1.1" id="Layer_1" xmlns="http://www.w3.org/2000/svg" xmlns:xlink="http://www.w3.org/1999/xlink" x="0px" y="0px"
	 width="24px" height="24px" viewBox="0 0 24 24" enable-background="new 0 0 24 24" xml:space="preserve">
<title>Team</title>
<g id="Team">
	<g id="Group-39" transform="translate(2.000000, 2.000000)">
		<path id="Fill-2" fill="#27B769" d="M5.375,8.875c0.724,0,1.313,0.589,1.313,1.313c0,0.723-0.588,1.313-1.313,1.313
			c-0.724,0-1.312-0.59-1.312-1.313C4.063,9.463,4.651,8.875,5.375,8.875 M5.375,13.249c1.691,0,3.063-1.37,3.063-3.062
			c0-1.691-1.371-3.063-3.063-3.063s-3.062,1.371-3.062,3.063C2.313,11.879,3.684,13.249,5.375,13.249"/>
		<path id="Fill-4" fill="#27B769" d="M14.124,8.875c0.725,0,1.313,0.589,1.313,1.313c0,0.723-0.588,1.313-1.313,1.313
			c-0.723,0-1.313-0.59-1.313-1.313C12.812,9.463,13.401,8.875,14.124,8.875 M11.063,10.187c0,1.692,1.371,3.062,3.062,3.062
			c1.692,0,3.063-1.37,3.063-3.062c0-1.691-1.37-3.063-3.063-3.063C12.434,7.125,11.063,8.496,11.063,10.187"/>
		<path id="Fill-6" fill="#27B769" d="M9.75,2.75c0.724,0,1.313,0.589,1.313,1.313S10.474,5.375,9.75,5.375
			c-0.724,0-1.313-0.589-1.313-1.313S9.026,2.75,9.75,2.75 M9.75,7.125c1.692,0,3.062-1.371,3.062-3.062S11.442,1,9.75,1
			C8.059,1,6.688,2.371,6.688,4.063S8.059,7.125,9.75,7.125"/>
		<path id="Fill-8" fill="#27B769" d="M11.477,16.749c0.4-0.529,1.037-0.875,1.751-0.875h1.334c0.715,0,1.35,0.346,1.749,0.875
			H11.477z M3.188,16.749c0.399-0.529,1.035-0.875,1.749-0.875h1.336c0.714,0,1.349,0.346,1.749,0.875H3.188z M14.562,14.124h-1.334
			c-1.508,0-2.816,0.848-3.478,2.092c-0.661-1.244-1.969-2.092-3.476-2.092H4.938C2.763,14.124,1,15.888,1,18.062v0.438h8.29h0.921
			h8.288v-0.438C18.499,15.888,16.737,14.124,14.562,14.124L14.562,14.124z"/>
	</g>
</g>
</svg>
