<?xml version="1.0" encoding="utf-8"?>
<!-- Generator: Adobe Illustrator 15.0.0, SVG Export Plug-In . SVG Version: 6.00 Build 0)  -->
<!DOCTYPE svg PUBLIC "-//W3C//DTD SVG 1.1//EN" "http://www.w3.org/Graphics/SVG/1.1/DTD/svg11.dtd">
<svg version="1.1" id="Layer_1" xmlns="http://www.w3.org/2000/svg" xmlns:xlink="http://www.w3.org/1999/xlink" x="0px" y="0px"
	 width="24px" height="24px" viewBox="0 0 24 24" enable-background="new 0 0 24 24" xml:space="preserve">
<title>Telephone</title>
<g id="Telephone">
	<g id="Group-6" transform="translate(2.000000, 3.000000)">
		<path id="Fill-2" fill="#0F93F3" d="M17.226,14.533H3.692v-2.681l1.192-1.201l0.084-0.084l0.076-0.094l2.03-2.707l1.269-1.691
			h4.229l1.269,1.691l2.03,2.707l0.076,0.094l0.084,0.084l1.193,1.201V14.533z M4.25,6.075L3.895,4.189
			C5.4,3.461,7.023,2.988,8.691,2.793c0.583-0.068,1.175-0.102,1.768-0.102s1.184,0.034,1.768,0.102
			c1.667,0.194,3.291,0.668,4.796,1.396l-0.355,1.886h-1.979L13.926,5.06l-0.507-0.677H7.498L6.99,5.06L6.229,6.075H4.25z
			 M15.956,7.767h2.115l0.846-4.491C16.431,1.829,13.538,1,10.458,1S4.486,1.829,2,3.275l0.846,4.491H4.96L3.692,9.458L2,11.15
			v5.075h16.917V11.15l-1.691-1.692L15.956,7.767z"/>
		<path id="Fill-4" fill="#0F93F3" d="M10.458,11.996c-0.933,0-1.692-0.759-1.692-1.691c0-0.934,0.759-1.692,1.692-1.692
			c0.934,0,1.692,0.758,1.692,1.692C12.15,11.237,11.393,11.996,10.458,11.996 M10.458,6.921c-1.869,0-3.383,1.515-3.383,3.384
			c0,1.868,1.515,3.383,3.383,3.383s3.383-1.515,3.383-3.383C13.842,8.436,12.327,6.921,10.458,6.921"/>
	</g>
</g>
</svg>
