<?xml version="1.0" encoding="utf-8"?>
<!-- Generator: Adobe Illustrator 15.0.0, SVG Export Plug-In . SVG Version: 6.00 Build 0)  -->
<!DOCTYPE svg PUBLIC "-//W3C//DTD SVG 1.1//EN" "http://www.w3.org/Graphics/SVG/1.1/DTD/svg11.dtd">
<svg version="1.1" id="Layer_1" xmlns="http://www.w3.org/2000/svg" xmlns:xlink="http://www.w3.org/1999/xlink" x="0px" y="0px"
	 width="48px" height="48px" viewBox="0 0 48 48" enable-background="new 0 0 48 48" xml:space="preserve">
<title>Windows</title>
<g id="Windows">
	<g id="window-10-logo" transform="translate(4.000000, 4.000000)">
		<g id="Group-4">
			<path id="Fill-1" fill="#10293B" d="M17.188,4.99c6.375-0.946,12.76-1.838,19.146-2.698c0.005,5.431,0,10.858,0.005,16.288
				c-6.383,0.024-12.764,0.118-19.151,0.138C17.184,14.139,17.184,9.564,17.188,4.99"/>
			<path id="Fill-3" fill="#10293B" d="M1,7.181c4.8-0.719,9.62-1.339,14.44-1.924c0.004,4.504,0.004,9.004,0.008,13.508
				C10.632,18.761,5.816,18.832,1,18.82V7.181"/>
		</g>
		<g id="Group-17" transform="translate(0.000000, 20.674157)">
			<path id="Fill-16" fill="#10293B" d="M1-0.436c4.812-0.017,9.624,0.058,14.436,0.051c0,4.516,0.012,9.03,0.004,13.547
				C10.632,12.47,5.816,11.866,1,11.233V-0.436"/>
		</g>
		<path id="Fill-18" fill="#10293B" d="M17.16,20.418c6.394,0,12.785,0,19.174,0c0.01,5.416,0,10.83,0,16.249
			c-6.373-0.927-12.759-1.787-19.146-2.627C17.18,29.501,17.168,24.962,17.16,20.418"/>
	</g>
</g>
</svg>
